<svg width="55" height="55" viewBox="0 0 55 55" fill="none" xmlns="http://www.w3.org/2000/svg">
<path d="M10.0908 1.44329C11.0627 0.516825 12.354 0 13.6968 0H49.7737C52.6601 0 55 2.33987 55 5.22624L55 41.6996C55 43.1291 54.4144 44.4962 53.3797 45.4825L44.9092 53.5567C43.9372 54.4832 42.646 55 41.3032 55L5.22625 55C2.33987 55 0 52.6601 0 49.7738V13.3004C0 11.8709 0.585555 10.5038 1.62029 9.51749L10.0908 1.44329Z" fill="#ED9C3C"/>
<path d="M17.1468 16.472C18.3841 16.472 19.4828 16.7067 20.4428 17.176C21.4241 17.6453 22.2134 18.2533 22.8108 19C23.4081 19.7467 23.8988 20.632 24.2828 21.656C24.6881 22.68 24.9654 23.704 25.1147 24.728C25.2641 25.752 25.3388 26.8293 25.3388 27.96C25.3388 31.5227 24.6134 34.3173 23.1628 36.344C21.7121 38.3707 19.7174 39.384 17.1788 39.384C14.5761 39.384 12.5388 38.3813 11.0668 36.376C9.61608 34.3493 8.89075 31.544 8.89075 27.96C8.89075 26.5307 9.02942 25.1867 9.30675 23.928C9.58408 22.648 10.0214 21.432 10.6188 20.28C11.2161 19.1067 12.0694 18.1787 13.1788 17.496C14.3094 16.8133 15.6321 16.472 17.1468 16.472ZM17.1148 20.216C16.5174 20.216 15.9948 20.344 15.5468 20.6C15.0988 20.856 14.7361 21.24 14.4588 21.752C14.2028 22.2427 13.9894 22.7227 13.8188 23.192C13.6694 23.64 13.5628 24.2373 13.4988 24.984C13.4348 25.7093 13.3921 26.264 13.3708 26.648C13.3708 27.032 13.3708 27.544 13.3708 28.184C13.3708 33.1973 14.6294 35.704 17.1468 35.704C19.6214 35.704 20.8588 33.1227 20.8588 27.96C20.8588 25.2933 20.5601 23.3413 19.9628 22.104C19.3654 20.8453 18.4161 20.216 17.1148 20.216ZM38.672 16.6V39H33.84V24.44H28.4V21.08H28.976C32.368 21.08 34.352 19.5867 34.928 16.6H38.672Z" fill="#FFF6E5"/>
</svg>
