<svg width="55" height="55" viewBox="0 0 55 55" fill="none" xmlns="http://www.w3.org/2000/svg">
<path d="M10.0908 1.44329C11.0627 0.516825 12.354 0 13.6968 0H49.7737C52.6601 0 55 2.33987 55 5.22624L55 41.6996C55 43.1291 54.4144 44.4962 53.3797 45.4825L44.9092 53.5567C43.9372 54.4832 42.646 55 41.3032 55L5.22625 55C2.33987 55 0 52.6601 0 49.7738V13.3004C0 11.8709 0.585555 10.5038 1.62029 9.51749L10.0908 1.44329Z" fill="#ED9C3C"/>
<path d="M17.1468 16.472C18.3841 16.472 19.4828 16.7067 20.4428 17.176C21.4241 17.6453 22.2134 18.2533 22.8108 19C23.4081 19.7467 23.8988 20.632 24.2828 21.656C24.6881 22.68 24.9654 23.704 25.1147 24.728C25.2641 25.752 25.3388 26.8293 25.3388 27.96C25.3388 31.5227 24.6134 34.3173 23.1628 36.344C21.7121 38.3707 19.7174 39.384 17.1788 39.384C14.5761 39.384 12.5388 38.3813 11.0668 36.376C9.61608 34.3493 8.89075 31.544 8.89075 27.96C8.89075 26.5307 9.02942 25.1867 9.30675 23.928C9.58408 22.648 10.0214 21.432 10.6188 20.28C11.2161 19.1067 12.0694 18.1787 13.1788 17.496C14.3094 16.8133 15.6321 16.472 17.1468 16.472ZM17.1148 20.216C16.5174 20.216 15.9948 20.344 15.5468 20.6C15.0988 20.856 14.7361 21.24 14.4588 21.752C14.2028 22.2427 13.9894 22.7227 13.8188 23.192C13.6694 23.64 13.5628 24.2373 13.4988 24.984C13.4348 25.7093 13.3921 26.264 13.3708 26.648C13.3708 27.032 13.3708 27.544 13.3708 28.184C13.3708 33.1973 14.6294 35.704 17.1468 35.704C19.6214 35.704 20.8588 33.1227 20.8588 27.96C20.8588 25.2933 20.5601 23.3413 19.9628 22.104C19.3654 20.8453 18.4161 20.216 17.1148 20.216ZM42.896 35.064V39H26.48C26.5013 37.9973 26.6293 37.08 26.864 36.248C27.12 35.3947 27.408 34.68 27.728 34.104C28.0693 33.528 28.5813 32.92 29.264 32.28C29.9467 31.64 30.544 31.128 31.056 30.744C31.5893 30.36 32.3573 29.8267 33.36 29.144C33.488 29.0587 33.8293 28.8347 34.384 28.472C34.9387 28.1093 35.3227 27.8533 35.536 27.704C35.7493 27.5547 36.0693 27.2987 36.496 26.936C36.9227 26.552 37.2213 26.2213 37.392 25.944C37.584 25.6667 37.7653 25.3253 37.936 24.92C38.1067 24.4933 38.192 24.056 38.192 23.608C38.192 22.6267 37.8933 21.848 37.296 21.272C36.72 20.6747 35.952 20.376 34.992 20.376C32.688 20.376 31.472 21.9973 31.344 25.24H26.992V24.76C26.992 22.2213 27.728 20.2053 29.2 18.712C30.672 17.1973 32.656 16.44 35.152 16.44C37.4133 16.44 39.248 17.08 40.656 18.36C42.064 19.6187 42.768 21.2613 42.768 23.288C42.768 24.9307 42.3947 26.2427 41.648 27.224C40.9013 28.2053 39.728 29.24 38.128 30.328C37.9147 30.4773 37.52 30.744 36.944 31.128C36.368 31.4907 35.9093 31.7893 35.568 32.024C35.248 32.2587 34.8533 32.5573 34.384 32.92C33.9147 33.2827 33.5093 33.6453 33.168 34.008C32.8267 34.3493 32.5387 34.7013 32.304 35.064H42.896Z" fill="#FFF6E5"/>
</svg>
