<svg width="55" height="55" viewBox="0 0 55 55" fill="none" xmlns="http://www.w3.org/2000/svg">
<path d="M10.0908 1.44329C11.0627 0.516825 12.354 0 13.6968 0H49.7737C52.6601 0 55 2.33987 55 5.22624L55 41.6996C55 43.1291 54.4144 44.4962 53.3797 45.4825L44.9092 53.5567C43.9372 54.4832 42.646 55 41.3032 55L5.22625 55C2.33987 55 0 52.6601 0 49.7738V13.3004C0 11.8709 0.585555 10.5038 1.62029 9.51749L10.0908 1.44329Z" fill="#ED9C3C"/>
<path d="M17.1468 19.2537C18.3841 19.2537 19.4828 19.4884 20.4428 19.9577C21.4241 20.4271 22.2134 21.0351 22.8108 21.7817C23.4081 22.5284 23.8988 23.4137 24.2828 24.4377C24.6881 25.4617 24.9654 26.4857 25.1147 27.5097C25.2641 28.5337 25.3388 29.6111 25.3388 30.7417C25.3388 34.3044 24.6134 37.0991 23.1628 39.1257C21.7121 41.1524 19.7174 42.1657 17.1788 42.1657C14.5761 42.1657 12.5388 41.1631 11.0668 39.1577C9.61608 37.1311 8.89075 34.3257 8.89075 30.7417C8.89075 29.3124 9.02942 27.9684 9.30675 26.7097C9.58408 25.4297 10.0214 24.2137 10.6188 23.0617C11.2161 21.8884 12.0694 20.9604 13.1788 20.2777C14.3094 19.5951 15.6321 19.2537 17.1468 19.2537ZM17.1148 22.9977C16.5174 22.9977 15.9948 23.1257 15.5468 23.3817C15.0988 23.6377 14.7361 24.0217 14.4588 24.5337C14.2028 25.0244 13.9894 25.5044 13.8188 25.9737C13.6694 26.4217 13.5628 27.0191 13.4988 27.7657C13.4348 28.4911 13.3921 29.0457 13.3708 29.4297C13.3708 29.8137 13.3708 30.3257 13.3708 30.9657C13.3708 35.9791 14.6294 38.4857 17.1468 38.4857C19.6214 38.4857 20.8588 35.9044 20.8588 30.7417C20.8588 28.0751 20.5601 26.1231 19.9628 24.8857C19.3654 23.6271 18.4161 22.9977 17.1148 22.9977ZM27.024 26.7097C27.1093 24.3844 27.8347 22.5604 29.2 21.2377C30.5653 19.8937 32.4213 19.2217 34.768 19.2217C36.9867 19.2217 38.7787 19.7977 40.144 20.9497C41.5307 22.0804 42.224 23.5524 42.224 25.3657C42.224 26.4537 41.936 27.4031 41.36 28.2137C40.8053 29.0031 40.048 29.5257 39.088 29.7817C40.3253 30.0804 41.296 30.6884 42 31.6057C42.704 32.5017 43.056 33.6111 43.056 34.9337C43.056 37.0671 42.2773 38.8164 40.72 40.1817C39.184 41.5257 37.1893 42.1977 34.736 42.1977C32.1973 42.1977 30.1813 41.4937 28.688 40.0857C27.1947 38.6777 26.448 36.7791 26.448 34.3897V34.0697H30.832C30.8533 35.4564 31.184 36.5231 31.824 37.2697C32.4853 37.9951 33.424 38.3577 34.64 38.3577C35.7493 38.3577 36.6453 38.0484 37.328 37.4297C38.0107 36.7897 38.352 35.9684 38.352 34.9657C38.352 33.7924 37.968 32.9497 37.2 32.4377C36.4533 31.9044 35.4827 31.6377 34.288 31.6377C33.84 31.6377 33.4667 31.6484 33.168 31.6697V28.4697C33.4027 28.4911 33.6587 28.5017 33.936 28.5017C36.5387 28.5017 37.84 27.5631 37.84 25.6857C37.84 24.8324 37.552 24.1497 36.976 23.6377C36.4213 23.1257 35.6747 22.8697 34.736 22.8697C33.6693 22.8697 32.8373 23.2004 32.24 23.8617C31.664 24.5231 31.3653 25.4724 31.344 26.7097H27.024Z" fill="#FFF6E5"/>
</svg>
