<svg width="239" height="376" viewBox="0 0 239 376" fill="none" xmlns="http://www.w3.org/2000/svg">
<path d="M84.8398 376V310.226H151.574V376H84.8398ZM90.5303 273.972C90.5303 251.53 92.772 233.403 97.2554 219.592C102.084 205.436 111.74 191.625 126.225 178.16C127.605 176.779 130.881 173.844 136.054 169.355C141.572 164.522 145.193 161.242 146.918 159.515C148.642 157.789 151.574 154.854 155.712 150.711C159.851 146.222 162.61 142.597 163.989 139.835C165.714 137.073 167.61 133.62 169.68 129.477C172.094 124.988 173.646 120.672 174.335 116.529C175.37 112.04 175.887 107.379 175.887 102.545C175.887 87.3535 170.887 74.9238 160.885 65.2562C150.884 55.5886 137.951 50.7548 122.087 50.7548C81.7359 50.7548 60.8709 75.2691 59.4913 124.298H0C1.72439 85.9725 12.9329 55.7612 33.6255 33.6639C54.3182 11.2213 84.1501 0 123.121 0C157.954 0 185.889 9.49495 206.926 28.4849C228.309 47.1295 239 71.8163 239 102.545C239 113.939 237.793 124.125 235.379 133.102C232.965 142.079 228.654 150.538 222.446 158.479C216.238 166.421 210.72 172.808 205.892 177.642C201.063 182.476 193.304 189.381 182.613 198.358C165.369 213.205 155.022 224.081 151.574 230.986C148.125 237.546 146.4 251.875 146.4 273.972H90.5303Z" fill="#231410" fill-opacity="0.06"/>
</svg>
