<svg width="14" height="14" viewBox="0 0 14 14" fill="none" xmlns="http://www.w3.org/2000/svg">
<path fill-rule="evenodd" clip-rule="evenodd" d="M9.57513 2.56152L4.37279 2.56152L13.6249 11.8136C13.8651 12.0538 14 12.3796 14 12.7193C14 13.0589 13.8651 13.3847 13.6249 13.6249C13.3847 13.8651 13.0589 14 12.7192 14C12.3795 14 12.0538 13.8651 11.8136 13.6249L2.5615 4.37276L2.5615 9.57513C2.5615 9.9148 2.42656 10.2406 2.18637 10.4808C1.94619 10.7209 1.62042 10.8559 1.28075 10.8559C0.941072 10.8559 0.615309 10.7209 0.375121 10.4808C0.134934 10.2406 4.87155e-08 9.9148 5.27661e-08 9.57513L1.45825e-07 1.77135C0.0214626 0.602917 0.775792 -1.57697e-07 1.76796 -1.45866e-07L9.5751 -5.27664e-08C9.91375 0.00156493 10.238 0.137191 10.4769 0.377211C10.7158 0.61723 10.85 0.942104 10.85 1.28076C10.85 1.61942 10.7158 1.94429 10.4769 2.18431C10.238 2.42433 9.91378 2.55996 9.57513 2.56152Z" fill="black"/>
</svg>
