<svg width="12" height="12" viewBox="0 0 12 12" fill="none" xmlns="http://www.w3.org/2000/svg">
<path fill-rule="evenodd" clip-rule="evenodd" d="M2.19559 3.79275V8.25189L10.126 0.321525C10.3318 0.115651 10.6111 -4.39784e-06 10.9022 1.25424e-10C11.1934 4.39809e-06 11.4726 0.115669 11.6785 0.321548C11.8843 0.527427 12 0.806657 12 1.09781C12 1.38896 11.8843 1.66819 11.6785 1.87406L3.74808 9.80443H8.20725C8.4984 9.80443 8.77763 9.92009 8.9835 10.126C9.18938 10.3318 9.30504 10.6111 9.30504 10.9022C9.30504 11.1934 9.18938 11.4726 8.9835 11.6785C8.77763 11.8843 8.4984 12 8.20725 12H1.5183C0.516786 11.9816 0 11.335 0 10.4846V3.79277C0.00134087 3.5025 0.117592 3.22457 0.323323 3.01979C0.529055 2.815 0.807518 2.70004 1.0978 2.70004C1.38807 2.70004 1.66654 2.815 1.87227 3.01979C2.078 3.22457 2.19425 3.50247 2.19559 3.79275Z" fill="#231410"/>
</svg>
