<svg width="84" height="72" viewBox="0 0 84 72" fill="none" xmlns="http://www.w3.org/2000/svg">
<path d="M33.7148 0.5H74C79.2467 0.5 83.5 4.7533 83.5 10V41.5586C83.4999 44.3226 82.2957 46.9493 80.2021 48.7539L56.4873 69.1953C54.7628 70.6818 52.5619 71.5 50.2852 71.5H10C4.7533 71.5 0.500002 67.2467 0.5 62V30.4414L0.513672 29.9248C0.65369 27.3522 1.83516 24.9379 3.79785 23.2461L27.5127 2.80469C29.2372 1.31819 31.4381 0.500046 33.7148 0.5Z" fill="#ED9C3C" stroke="#ED9C3C"/>
<g clip-path="url(#clip0_175_37)">
<path fill-rule="evenodd" clip-rule="evenodd" d="M34.8404 32.6356V40.44L48.7201 26.5603C49.0804 26.2 49.5691 25.9976 50.0787 25.9976C50.5883 25.9976 51.077 26.2 51.4373 26.5603C51.7976 26.9207 52 27.4094 52 27.9189C52 28.4285 51.7976 28.9172 51.4372 29.2775L37.5575 43.1572H45.362C45.8715 43.1572 46.3602 43.3596 46.7205 43.72C47.0809 44.0803 47.2833 44.569 47.2833 45.0786C47.2833 45.5881 47.0809 46.0768 46.7205 46.4371C46.3602 46.7975 45.8715 46.9999 45.362 46.9999H33.655C31.9021 46.9677 30.9977 45.8361 30.9977 44.3477V32.6356C31 32.1276 31.2035 31.6412 31.5635 31.2828C31.9236 30.9244 32.411 30.7231 32.919 30.7231C33.4271 30.7231 33.9144 30.9244 34.2745 31.2828C34.6346 31.6412 34.838 32.1276 34.8404 32.6356Z" fill="black"/>
</g>
<defs>
<clipPath id="clip0_175_37">
<rect width="21" height="21" fill="white" transform="translate(31 26)"/>
</clipPath>
</defs>
</svg>
