<svg width="40" height="40" viewBox="0 0 40 40" fill="none" xmlns="http://www.w3.org/2000/svg">
<circle cx="20" cy="20" r="20" fill="#FFF6E5"/>
<path d="M23.4939 11.0566C24.7627 11.0566 25.9795 11.5607 26.8767 12.4578C27.7739 13.355 28.2779 14.5718 28.2779 15.8406V23.4949C28.2779 24.7637 27.7739 25.9805 26.8767 26.8777C25.9795 27.7748 24.7627 28.2789 23.4939 28.2789H15.8396C14.5708 28.2789 13.354 27.7748 12.4569 26.8777C11.5597 25.9805 11.0557 24.7637 11.0557 23.4949V15.8406C11.0557 14.5718 11.5597 13.355 12.4569 12.4578C13.354 11.5607 14.5708 11.0566 15.8396 11.0566H23.4939ZM19.6668 15.8406C18.6517 15.8406 17.6783 16.2438 16.9606 16.9615C16.2428 17.6793 15.8396 18.6527 15.8396 19.6678C15.8396 20.6828 16.2428 21.6562 16.9606 22.374C17.6783 23.0917 18.6517 23.4949 19.6668 23.4949C20.6818 23.4949 21.6553 23.0917 22.373 22.374C23.0907 21.6562 23.4939 20.6828 23.4939 19.6678C23.4939 18.6527 23.0907 17.6793 22.373 16.9615C21.6553 16.2438 20.6818 15.8406 19.6668 15.8406ZM19.6668 17.7542C20.1743 17.7542 20.661 17.9558 21.0199 18.3146C21.3787 18.6735 21.5804 19.1602 21.5804 19.6678C21.5804 20.1753 21.3787 20.662 21.0199 21.0209C20.661 21.3797 20.1743 21.5813 19.6668 21.5813C19.1593 21.5813 18.6725 21.3797 18.3137 21.0209C17.9548 20.662 17.7532 20.1753 17.7532 19.6678C17.7532 19.1602 17.9548 18.6735 18.3137 18.3146C18.6725 17.9558 19.1593 17.7542 19.6668 17.7542ZM23.9723 14.4054C23.7186 14.4054 23.4752 14.5062 23.2958 14.6856C23.1163 14.8651 23.0155 15.1084 23.0155 15.3622C23.0155 15.616 23.1163 15.8593 23.2958 16.0387C23.4752 16.2182 23.7186 16.319 23.9723 16.319C24.2261 16.319 24.4695 16.2182 24.6489 16.0387C24.8283 15.8593 24.9291 15.616 24.9291 15.3622C24.9291 15.1084 24.8283 14.8651 24.6489 14.6856C24.4695 14.5062 24.2261 14.4054 23.9723 14.4054Z" fill="#231410"/>
</svg>
