<svg width="204" height="53" viewBox="0 0 204 53" fill="none" xmlns="http://www.w3.org/2000/svg">
<path d="M1.57583 51.0312L13.9259 44.4747C14.2313 44.3175 14.4145 44.0293 14.4145 43.7253V13.6212C14.4145 13.1338 14.8726 12.7355 15.4468 12.7355H23.6863C24.2543 12.7355 24.7185 13.1286 24.7185 13.6212V43.7253C24.7185 44.0293 24.9017 44.3175 25.2071 44.4747L37.5633 51.0312C38.2535 51.398 39.1391 50.9735 39.1391 50.2817V0.812348C39.0903 0.351144 38.6566 0 38.1191 0H1.02612C0.470305 0 0.0305393 0.38259 0 0.864757V50.287C0 50.9788 0.885639 51.4033 1.57583 51.0364V51.0312ZM27.2655 43.4423C26.9601 43.285 26.7768 42.9968 26.7768 42.6928V11.8446C26.7768 11.3414 26.3188 10.9326 25.7446 10.9326H13.3823C12.8143 10.9326 12.3501 11.3414 12.3501 11.8446V42.6981C12.3501 43.002 12.1668 43.2903 11.8615 43.4475C11.1713 43.8144 10.2856 43.3899 10.2856 42.6981V9.9945C10.2856 9.50709 10.7437 9.10878 11.3179 9.10878H27.7969C28.3649 9.10878 28.8291 9.50185 28.8291 9.9945V42.6928C28.8291 43.3846 27.9434 43.8091 27.2533 43.4423H27.2655ZM31.3883 45.6277C31.0829 45.4705 30.8996 45.1875 30.8996 44.8783V8.20209C30.8996 7.69896 30.4416 7.29017 29.8674 7.29017H9.26562C8.69759 7.29017 8.23339 7.69896 8.23339 8.20209V44.8835C8.23339 45.1875 8.05015 45.4758 7.74476 45.633C7.05457 45.9999 6.16893 45.5753 6.16893 44.8835V6.3468C6.16893 5.85939 6.62702 5.46107 7.20116 5.46107H31.9197C32.4877 5.46107 32.9519 5.85415 32.9519 6.3468V44.8731C32.9519 45.5649 32.0662 45.9894 31.3761 45.6225H31.3883V45.6277ZM3.08447 1.81861H36.0364C36.6044 1.81861 37.0686 2.21168 37.0686 2.70433V47.069C37.0686 47.7608 36.1829 48.1853 35.4928 47.8185C35.1874 47.6612 35.0041 47.373 35.0041 47.069V4.55439C35.0041 4.05126 34.546 3.64246 33.9719 3.64246H5.14281C4.57478 3.64246 4.11059 4.05126 4.11059 4.55439V47.069C4.11059 47.373 3.92735 47.6612 3.62196 47.8185C2.93177 48.1853 2.04613 47.7608 2.04613 47.069V2.70433C2.04613 2.21692 2.50422 1.81861 3.07836 1.81861H3.08447Z" fill="#754437"/>
<path d="M68.3857 12.7442V15.7151H65.1284V23.2392C65.1284 23.714 65.1386 24.0611 65.1591 24.2755C65.1795 24.4899 65.2511 24.7145 65.3738 24.9391C65.4966 25.1688 65.6909 25.3168 65.9466 25.3883C66.2022 25.4597 66.5704 25.4955 67.0459 25.4955C67.5829 25.4955 68.0277 25.4751 68.3806 25.4342V28.7777C67.3067 28.8594 66.417 28.9002 65.7113 28.9002C63.7887 28.9002 62.4796 28.5633 61.7893 27.8946C61.099 27.2259 60.7513 25.9294 60.7513 24.01V15.71H58.082V12.7391H60.7513V7.91016H65.1233V12.7391H68.3806L68.3857 12.7442Z" fill="#231410"/>
<path d="M86.5284 23.7646C86.0324 25.4798 85.1171 26.8121 83.7825 27.7615C82.4479 28.711 80.8627 29.1857 79.0219 29.1857C76.5623 29.1857 74.5783 28.42 73.08 26.8937C71.5818 25.3675 70.8301 23.3409 70.8301 20.8244C70.8301 18.3078 71.5869 16.3017 73.0953 14.6938C74.6038 13.0858 76.5265 12.2793 78.8633 12.2793C81.2002 12.2793 83.2047 13.1011 84.6313 14.7397C86.058 16.3834 86.7739 18.6039 86.7739 21.4114V21.8453H75.2993C75.3197 23.2286 75.6572 24.2802 76.3066 25.005C76.956 25.7299 77.8713 26.0872 79.0525 26.0872C80.6019 26.0872 81.6911 25.3113 82.3098 23.7646H86.5284ZM82.3098 19.0582C82.2076 18.0066 81.8649 17.144 81.2871 16.4702C80.7093 15.8015 79.9014 15.4646 78.8685 15.4646C77.8969 15.4646 77.089 15.7862 76.4498 16.4242C75.8106 17.0623 75.4271 17.9403 75.3044 19.0582H82.3149H82.3098Z" fill="#231410"/>
<path d="M100.677 12.4637V16.5219C100.058 16.3994 99.4854 16.3381 98.969 16.3381C97.5219 16.3381 96.4583 16.7975 95.773 17.7164C95.093 18.6352 94.7504 19.8705 94.7504 21.4172V28.727H90.3477V12.7496H94.5356V15.6898C95.589 13.4795 97.3173 12.377 99.7155 12.377C99.9201 12.377 100.242 12.4076 100.677 12.4688V12.4637Z" fill="#231410"/>
<path d="M113.732 12.4637V16.5219C113.113 16.3994 112.54 16.3381 112.024 16.3381C110.577 16.3381 109.513 16.7975 108.828 17.7164C108.143 18.6352 107.805 19.8705 107.805 21.4172V28.727H103.402V12.7496H107.59V15.6898C108.644 13.4795 110.372 12.377 112.77 12.377C112.975 12.377 113.297 12.4076 113.732 12.4688V12.4637Z" fill="#231410"/>
<path d="M131.293 28.7216H126.824C126.68 28.3082 126.573 27.7926 126.512 27.1749C125.167 28.5174 123.438 29.1861 121.332 29.1861C119.552 29.1861 118.156 28.7574 117.144 27.8998C116.131 27.0422 115.625 25.8631 115.625 24.3521C115.625 23.6732 115.712 23.0708 115.891 22.5553C116.065 22.0397 116.356 21.6058 116.76 21.2536C117.164 20.9014 117.548 20.6155 117.906 20.3858C118.269 20.1612 118.77 19.9724 119.409 19.8294C120.048 19.6865 120.565 19.5742 120.958 19.5027C121.352 19.4313 121.899 19.3547 122.6 19.2679C124.149 19.0637 125.192 18.8442 125.719 18.6196C126.246 18.395 126.512 17.9714 126.512 17.3486C126.512 15.9244 125.55 15.2098 123.628 15.2098C122.615 15.2098 121.869 15.3884 121.393 15.7509C120.917 16.1133 120.606 16.7463 120.462 17.6549H116.336C116.586 14.0612 119.056 12.2695 123.75 12.2695C128.444 12.2695 130.73 14.0051 130.73 17.4711V24.3776C130.73 26.399 130.914 27.8436 131.288 28.7114L131.293 28.7216ZM126.486 20.9473C125.97 21.2587 124.937 21.5344 123.382 21.7845C122.078 21.9887 121.229 22.249 120.841 22.5604C120.386 22.9534 120.161 23.4894 120.161 24.1683C120.161 24.8472 120.37 25.3526 120.795 25.7303C121.219 26.1132 121.812 26.3021 122.579 26.3021C123.755 26.3021 124.707 25.9856 125.417 25.3577C126.133 24.7298 126.486 23.857 126.486 22.739V20.9422V20.9473Z" fill="#231410"/>
<path d="M143.918 6.67391V9.89491C143.008 9.85407 142.522 9.83366 142.461 9.83366C141.673 9.83366 141.152 9.94085 140.896 10.1603C140.635 10.3747 140.507 10.8137 140.507 11.4773V12.7484H143.642V15.7192H140.538V28.7257H136.135V15.7192H133.527V12.7484H136.135V11.9112C136.135 10.0327 136.56 8.67491 137.408 7.83776C138.257 7.00061 139.664 6.58203 141.627 6.58203C141.852 6.58203 142.098 6.58714 142.353 6.59734C142.614 6.60755 142.895 6.62287 143.207 6.64329C143.519 6.6637 143.754 6.67391 143.918 6.67391Z" fill="#231410"/>
<path d="M154.4 12.2793C156.859 12.2793 158.838 13.0552 160.342 14.6019C161.84 16.1486 162.592 18.1955 162.592 20.7325C162.592 23.2695 161.84 25.347 160.342 26.8937C158.843 28.4404 156.839 29.2163 154.339 29.2163C151.838 29.2163 149.828 28.4404 148.32 26.8937C146.811 25.347 146.055 23.2899 146.055 20.7325C146.055 18.1751 146.822 16.1486 148.351 14.6019C149.88 13.0552 151.899 12.2793 154.4 12.2793ZM154.277 15.6228C153.096 15.6228 152.17 16.0771 151.485 16.9857C150.805 17.8943 150.462 19.145 150.462 20.7325C150.462 22.32 150.805 23.6319 151.485 24.5405C152.165 25.4491 153.116 25.9034 154.339 25.9034C155.561 25.9034 156.507 25.444 157.176 24.5252C157.846 23.6064 158.184 22.3302 158.184 20.7019C158.184 19.0735 157.836 17.8688 157.146 16.9704C156.455 16.072 155.499 15.6228 154.277 15.6228Z" fill="#231410"/>
<path d="M176.347 12.4637V16.5219C175.728 16.3994 175.155 16.3381 174.639 16.3381C173.192 16.3381 172.128 16.7975 171.443 17.7164C170.763 18.6352 170.42 19.8705 170.42 21.4172V28.727H166.018V12.7496H170.205V15.6898C171.259 13.4795 172.987 12.377 175.385 12.377C175.59 12.377 175.912 12.4076 176.347 12.4688V12.4637Z" fill="#231410"/>
<path d="M203.672 28.7218H199.203V19.1864C199.203 18.1349 199.039 17.3233 198.707 16.7566C198.374 16.19 197.694 15.9042 196.661 15.9042C194.616 15.9042 193.588 17.1854 193.588 19.7428V28.7218H189.185V18.9976C189.185 18.0073 189.022 17.2365 188.689 16.6903C188.357 16.1441 187.718 15.8684 186.767 15.8684C184.634 15.8684 183.571 17.262 183.571 20.0491V28.7218H179.168V12.7444H183.356V14.9445C184.619 13.1885 186.311 12.3105 188.444 12.3105C190.576 12.3105 192.166 13.1885 192.974 14.9445C194.258 13.1885 196.002 12.3105 198.216 12.3105C199.975 12.3105 201.325 12.821 202.266 13.8419C203.206 14.8628 203.677 16.2411 203.677 17.9766V28.7218H203.672Z" fill="#231410"/>
<path d="M203.685 44.1454H202.664V41.749H201.505L199.856 44.1454H198.582L200.37 41.6512C199.891 41.5045 199.562 41.2871 199.382 40.9991C199.203 40.7111 199.113 40.3606 199.113 39.9476C199.113 39.4585 199.281 39.07 199.619 38.782C199.956 38.4885 200.43 38.3418 201.04 38.3418H203.685V44.1454ZM202.664 40.9746V39.1732H201.146C200.797 39.1732 200.542 39.2439 200.378 39.3851C200.215 39.521 200.133 39.7384 200.133 40.0372C200.133 40.6622 200.465 40.9746 201.129 40.9746H202.664Z" fill="#231410"/>
<path d="M198.226 38.342V39.2224H196.372V44.1457H195.351V39.2224H193.498V38.342H198.226Z" fill="#231410"/>
<path d="M192.977 38.3418V39.2221H191.124V44.1454H190.103V39.2221H188.25V38.3418H192.977Z" fill="#231410"/>
<path d="M182.488 44.1457V38.342H183.509V42.7926L186.007 38.342H187.191V44.1457H186.171V39.6951L183.672 44.1457H182.488Z" fill="#231410"/>
<path d="M176.666 38.342H179.189C179.815 38.342 180.308 38.4915 180.667 38.7904C181.032 39.0838 181.214 39.524 181.214 40.1108C181.214 40.6651 181.045 41.1053 180.708 41.4313C180.37 41.752 179.91 41.9123 179.328 41.9123H177.687V44.1457H176.666V38.342ZM177.687 39.1898V41.089H179.107C179.848 41.089 180.218 40.7711 180.218 40.1353C180.218 39.5049 179.818 39.1898 179.018 39.1898H177.687Z" fill="#231410"/>
<path d="M175.519 38.342L173.192 40.657L175.666 44.1457H174.4L172.49 41.3661L171.657 42.1976V44.1457H170.645V38.342H171.657V40.9749L174.229 38.342H175.519Z" fill="#231410"/>
<path d="M166.547 38.2031C167.369 38.2031 168.036 38.4857 168.547 39.0508C169.065 39.6106 169.323 40.3415 169.323 41.2435C169.323 42.1456 169.065 42.8792 168.547 43.4443C168.03 44.0041 167.358 44.2839 166.531 44.2839C165.698 44.2839 165.023 44.0041 164.506 43.4443C163.994 42.8846 163.738 42.151 163.738 41.2435C163.738 40.3632 163.989 39.6377 164.489 39.0672C164.996 38.4911 165.682 38.2031 166.547 38.2031ZM166.531 39.059C165.997 39.059 165.57 39.2573 165.249 39.654C164.928 40.0453 164.767 40.5697 164.767 41.2272C164.767 41.901 164.925 42.4363 165.241 42.833C165.562 43.2297 165.997 43.428 166.547 43.428C167.075 43.428 167.497 43.2297 167.813 42.833C168.134 42.4309 168.294 41.8983 168.294 41.2354C168.294 40.5724 168.134 40.0453 167.813 39.654C167.497 39.2573 167.07 39.059 166.531 39.059Z" fill="#231410"/>
<path d="M162.428 38.3418V44.1454H161.407V39.2221H158.745V44.1454H157.725V38.3418H162.428Z" fill="#231410"/>
<path d="M153.689 38.342V39.1979H150.512V40.7385H153.46V41.5618H150.512V43.2735H153.738V44.1457H149.5V38.342H153.689Z" fill="#231410"/>
<path d="M147.894 38.3418V44.1454H146.874V41.5371H144.212V44.1454H143.191V38.3418H144.212V40.6486H146.874V38.3418H147.894Z" fill="#231410"/>
<path d="M137.369 38.3418H139.892C140.518 38.3418 141.011 38.4912 141.37 38.7901C141.735 39.0836 141.917 39.5237 141.917 40.1106C141.917 40.6649 141.748 41.105 141.411 41.4311C141.073 41.7517 140.613 41.912 140.031 41.912H138.39V44.1454H137.369V38.3418ZM138.39 39.1895V41.0887H139.81C140.551 41.0887 140.921 40.7708 140.921 40.1351C140.921 39.5047 140.521 39.1895 139.721 39.1895H138.39Z" fill="#231410"/>
<path d="M136.008 42.1969C135.91 42.8327 135.638 43.3407 135.192 43.7211C134.746 44.0961 134.185 44.2836 133.51 44.2836C132.688 44.2836 132.029 44.0064 131.534 43.4521C131.039 42.8979 130.791 42.1615 130.791 41.2432C130.791 40.6889 130.897 40.1862 131.109 39.7352C131.322 39.2787 131.64 38.9119 132.065 38.6348C132.489 38.3522 132.987 38.2109 133.559 38.2109C134.158 38.2109 134.68 38.3712 135.127 38.6919C135.578 39.0125 135.861 39.4771 135.976 40.0857H134.955C134.868 39.7705 134.699 39.5233 134.449 39.344C134.199 39.1646 133.896 39.075 133.543 39.075C133.058 39.075 132.674 39.2326 132.391 39.5477C132.114 39.8575 131.937 40.2542 131.861 40.7378H134.318V41.5611H131.836C131.88 42.0936 132.043 42.5365 132.326 42.8897C132.609 43.2429 133.012 43.4195 133.534 43.4195C134.313 43.4195 134.795 43.012 134.98 42.1969H136.008Z" fill="#231410"/>
<path d="M129.474 38.3418V39.2384C129.474 40.0753 129.101 40.5589 128.355 40.6893V40.2084C128.693 40.0997 128.87 39.8362 128.886 39.4178H128.355V38.3418H129.474Z" fill="#231410"/>
<path d="M122.535 38.3418H125.058C125.684 38.3418 126.177 38.4912 126.536 38.7901C126.901 39.0836 127.083 39.5237 127.083 40.1106C127.083 40.6649 126.914 41.105 126.577 41.4311C126.239 41.7517 125.779 41.912 125.197 41.912H123.556V44.1454H122.535V38.3418ZM123.556 39.1895V41.0887H124.976C125.717 41.0887 126.087 40.7708 126.087 40.1351C126.087 39.5047 125.687 39.1895 124.887 39.1895H123.556Z" fill="#231410"/>
<path d="M121.148 38.3418V39.1977H117.971V40.7382H120.919V41.5615H117.971V43.2733H121.197V44.1454H116.959V38.3418H121.148Z" fill="#231410"/>
<path d="M115.892 38.3418V39.2221H114.038V44.1454H113.017V39.2221H111.164V38.3418H115.892Z" fill="#231410"/>
<path d="M110.103 38.3418V44.1454H109.083V41.5371H106.421V44.1454H105.4V38.3418H106.421V40.6486H109.083V38.3418H110.103Z" fill="#231410"/>
<path d="M103.775 38.3418V44.1454H102.746V38.3418H103.775Z" fill="#231410"/>
<path d="M98.6847 38.3418V39.1977H95.5085V40.7382H98.4561V41.5615H95.5085V43.2733H98.7337V44.1454H94.4961V38.3418H98.6847Z" fill="#231410"/>
<path d="M92.8905 38.3418V44.1454H91.8699V41.5371H89.2081V44.1454H88.1875V38.3418H89.2081V40.6486H91.8699V38.3418H92.8905Z" fill="#231410"/>
<path d="M86.8848 41.936C86.8304 42.6479 86.5745 43.2185 86.1173 43.6478C85.6655 44.0716 85.0776 44.2836 84.3537 44.2836C83.5317 44.2836 82.8731 44.0064 82.3778 43.4521C81.8824 42.8979 81.6348 42.1615 81.6348 41.2432C81.6348 40.6889 81.7409 40.1862 81.9532 39.7352C82.1655 39.2787 82.4839 38.9119 82.9085 38.6348C83.3331 38.3522 83.8311 38.2109 84.4027 38.2109C85.0178 38.2109 85.5539 38.3821 86.0112 38.7245C86.4684 39.0614 86.7433 39.5504 86.8358 40.1917H85.8234C85.7526 39.8439 85.5893 39.5722 85.3335 39.3766C85.0776 39.1755 84.7619 39.075 84.3863 39.075C83.9999 39.075 83.6705 39.1836 83.3984 39.401C83.1317 39.6184 82.9412 39.8874 82.8268 40.208C82.718 40.5232 82.6635 40.8682 82.6635 41.2432C82.6635 41.5258 82.6962 41.792 82.7615 42.042C82.8268 42.292 82.9248 42.5229 83.0555 42.7348C83.1861 42.9413 83.363 43.1071 83.5862 43.2321C83.8148 43.3571 84.0788 43.4195 84.3782 43.4195C85.2437 43.4195 85.739 42.925 85.8642 41.936H86.8848Z" fill="#231410"/>
<path d="M78.7024 38.334L80.9477 44.1458H79.8536L79.2984 42.6052H76.9959L76.4244 44.1458H75.3711L77.6164 38.334H78.7024ZM79.029 41.839L78.1635 39.3936L77.2572 41.839H79.029Z" fill="#231410"/>
<path d="M73.4157 41.6025C72.7897 41.7112 72.2808 41.7655 71.8889 41.7655C71.5514 41.7655 71.252 41.7248 70.9907 41.6433C70.7349 41.5563 70.5362 41.4531 70.3947 41.3335C70.2586 41.2085 70.147 41.0618 70.0599 40.8934C69.9729 40.7249 69.9157 40.5727 69.8885 40.4369C69.8613 40.2956 69.8477 40.1489 69.8477 39.9967V38.342H70.8683V39.687C70.8683 39.8174 70.871 39.9207 70.8764 39.9967C70.8819 40.0728 70.9064 40.1733 70.9499 40.2983C70.9935 40.4233 71.0533 40.5211 71.1295 40.5918C71.2058 40.6624 71.3228 40.7249 71.4806 40.7792C71.6385 40.8336 71.829 40.8608 72.0522 40.8608C72.4985 40.8608 72.953 40.8146 73.4157 40.7222V38.342H74.4363V44.1457H73.4157V41.6025Z" fill="#231410"/>
<path d="M66.0066 42.5152L63.998 38.3418H65.1248L66.5292 41.4555L67.9662 38.3418H69.0685L66.8068 42.9635C66.5727 43.4417 66.3223 43.7814 66.0556 43.9824C65.7889 44.1835 65.4868 44.284 65.1493 44.284C64.9098 44.284 64.6812 44.2351 64.4634 44.1373V43.2814C64.6213 43.3792 64.839 43.4281 65.1166 43.4281C65.2908 43.4281 65.4378 43.3602 65.5575 43.2244C65.6773 43.0885 65.8243 42.8576 65.9984 42.5315L66.0066 42.5152Z" fill="#231410"/>
<path d="M63.3321 41.936C63.2776 42.6479 63.0218 43.2185 62.5646 43.6478C62.1128 44.0716 61.5249 44.2836 60.8009 44.2836C59.979 44.2836 59.3204 44.0064 58.825 43.4521C58.3297 42.8979 58.082 42.1615 58.082 41.2432C58.082 40.6889 58.1882 40.1862 58.4005 39.7352C58.6128 39.2787 58.9312 38.9119 59.3558 38.6348C59.7803 38.3522 60.2784 38.2109 60.8499 38.2109C61.465 38.2109 62.0012 38.3821 62.4584 38.7245C62.9157 39.0614 63.1905 39.5504 63.2831 40.1917H62.2706C62.1999 39.8439 62.0366 39.5722 61.7807 39.3766C61.5249 39.1755 61.2092 39.075 60.8336 39.075C60.4471 39.075 60.1178 39.1836 59.8457 39.401C59.5789 39.6184 59.3884 39.8874 59.2741 40.208C59.1652 40.5232 59.1108 40.8682 59.1108 41.2432C59.1108 41.5258 59.1435 41.792 59.2088 42.042C59.2741 42.292 59.3721 42.5229 59.5027 42.7348C59.6334 42.9413 59.8103 43.1071 60.0334 43.2321C60.2621 43.3571 60.5261 43.4195 60.8254 43.4195C61.6909 43.4195 62.1863 42.925 62.3115 41.936H63.3321Z" fill="#231410"/>
</svg>
