<svg width="154" height="40" viewBox="0 0 154 40" fill="none" xmlns="http://www.w3.org/2000/svg">
<path d="M1.23575 39.7361L10.9206 34.6308C11.16 34.5084 11.3037 34.2839 11.3037 34.0472V10.6064C11.3037 10.2268 11.663 9.91667 12.1132 9.91667H18.5745C19.02 9.91667 19.384 10.2227 19.384 10.6064V34.0472C19.384 34.2839 19.5277 34.5084 19.7672 34.6308L29.4568 39.7361C29.998 40.0217 30.6925 39.6912 30.6925 39.1525V0.632545C30.6542 0.273423 30.3141 0 29.8926 0H0.804672C0.368808 0 0.0239486 0.297908 0 0.673354V39.1566C0 39.6953 0.694509 40.0258 1.23575 39.7402V39.7361ZM21.3813 33.8269C21.1418 33.7044 20.9981 33.48 20.9981 33.2433V9.22292C20.9981 8.83115 20.6389 8.51283 20.1887 8.51283H10.4943C10.0488 8.51283 9.6848 8.83115 9.6848 9.22292V33.2474C9.6848 33.4841 9.54111 33.7085 9.30163 33.831C8.76039 34.1166 8.06588 33.7861 8.06588 33.2474V7.78234C8.06588 7.40282 8.42511 7.09267 8.87534 7.09267H21.798C22.2434 7.09267 22.6075 7.39874 22.6075 7.78234V33.2433C22.6075 33.782 21.9129 34.1125 21.3717 33.8269H21.3813ZM24.6143 35.5286C24.3749 35.4062 24.2312 35.1858 24.2312 34.9451V6.38666C24.2312 5.99489 23.8719 5.67658 23.4217 5.67658H7.266C6.82056 5.67658 6.45654 5.99489 6.45654 6.38666V34.9491C6.45654 35.1858 6.31285 35.4103 6.07336 35.5327C5.53212 35.8184 4.83761 35.4878 4.83761 34.9491V4.94201C4.83761 4.56249 5.19684 4.25234 5.64707 4.25234H25.0311C25.4765 4.25234 25.8405 4.55841 25.8405 4.94201V34.941C25.8405 35.4797 25.146 35.8102 24.6048 35.5245H24.6143V35.5286ZM2.41881 1.41608H28.2593C28.7048 1.41608 29.0688 1.72215 29.0688 2.10576V36.6509C29.0688 37.1896 28.3743 37.5201 27.833 37.2345C27.5936 37.112 27.4499 36.8876 27.4499 36.6509V3.54633C27.4499 3.15456 27.0906 2.83625 26.6404 2.83625H4.03294C3.5875 2.83625 3.22348 3.15456 3.22348 3.54633V36.6509C3.22348 36.8876 3.07979 37.112 2.8403 37.2345C2.29906 37.5201 1.60455 37.1896 1.60455 36.6509V2.10576C1.60455 1.72624 1.96378 1.41608 2.41402 1.41608H2.41881Z" fill="#231410"/>
<path d="M50.3887 16.1036V18.3578H47.8995V24.0671C47.8995 24.4273 47.9074 24.6907 47.923 24.8534C47.9386 25.016 47.9933 25.1865 48.0871 25.3569C48.1809 25.5312 48.3294 25.6435 48.5248 25.6977C48.7201 25.752 49.0015 25.7791 49.3649 25.7791C49.7752 25.7791 50.1151 25.7636 50.3848 25.7326V28.2696C49.5642 28.3316 48.8842 28.3626 48.345 28.3626C46.8758 28.3626 45.8754 28.1069 45.3479 27.5995C44.8204 27.0921 44.5546 26.1083 44.5546 24.6519V18.354H42.5149V16.0997H44.5546V12.4355H47.8956V16.0997H50.3848L50.3887 16.1036Z" fill="#231410"/>
<path d="M64.2534 24.4669C63.8743 25.7683 63.1749 26.7792 62.155 27.4997C61.1351 28.2201 59.9237 28.5803 58.517 28.5803C56.6375 28.5803 55.1213 27.9993 53.9764 26.8412C52.8315 25.6831 52.2571 24.1454 52.2571 22.2359C52.2571 20.3263 52.8354 18.8041 53.9881 17.584C55.1409 16.3639 56.6101 15.752 58.3959 15.752C60.1817 15.752 61.7134 16.3756 62.8036 17.6189C63.8939 18.8661 64.4409 20.551 64.4409 22.6813V23.0105H55.6723C55.6879 24.0602 55.9458 24.8581 56.4421 25.4081C56.9384 25.9581 57.6378 26.2292 58.5405 26.2292C59.7245 26.2292 60.5568 25.6405 61.0296 24.4669H64.2534ZM61.0296 20.8957C60.9514 20.0978 60.6896 19.4432 60.2481 18.9319C59.8065 18.4245 59.1891 18.1689 58.3998 18.1689C57.6574 18.1689 57.04 18.4129 56.5515 18.8971C56.0631 19.3812 55.77 20.0474 55.6762 20.8957H61.0335H61.0296Z" fill="#231410"/>
<path d="M75.0645 15.892V18.9713C74.5916 18.8783 74.154 18.8319 73.7593 18.8319C72.6535 18.8319 71.8407 19.1805 71.3171 19.8776C70.7974 20.5748 70.5356 21.5122 70.5356 22.6858V28.2324H67.1711V16.1089H70.3715V18.3399C71.1764 16.6628 72.4972 15.8262 74.3298 15.8262C74.4861 15.8262 74.7323 15.8494 75.0645 15.8959V15.892Z" fill="#231410"/>
<path d="M85.041 15.8901V18.9693C84.5682 18.8764 84.1305 18.8299 83.7359 18.8299C82.63 18.8299 81.8173 19.1785 81.2936 19.8757C80.77 20.5729 80.5121 21.5102 80.5121 22.6838V28.2304H77.1477V16.107H80.348V18.338C81.153 16.6609 82.4737 15.8242 84.3064 15.8242C84.4627 15.8242 84.7089 15.8475 85.041 15.8939V15.8901Z" fill="#231410"/>
<path d="M98.4604 28.2278H95.0451C94.9357 27.9141 94.8537 27.5229 94.8068 27.0542C93.7791 28.0729 92.4583 28.5803 90.8484 28.5803C89.4886 28.5803 88.4218 28.2549 87.6481 27.6042C86.8744 26.9535 86.4875 26.0587 86.4875 24.9122C86.4875 24.3971 86.554 23.94 86.6907 23.5488C86.8236 23.1576 87.0463 22.8284 87.355 22.5612C87.6637 22.2939 87.9568 22.077 88.2303 21.9027C88.5078 21.7323 88.8907 21.589 89.3792 21.4805C89.8676 21.372 90.2623 21.2868 90.5632 21.2326C90.864 21.1784 91.2821 21.1203 91.8175 21.0544C93.0015 20.8995 93.7986 20.733 94.2011 20.5625C94.6036 20.3921 94.8068 20.0706 94.8068 19.5981C94.8068 18.5174 94.0722 17.9752 92.6029 17.9752C91.8292 17.9752 91.2587 18.1107 90.8953 18.3857C90.5319 18.6607 90.2935 19.141 90.1841 19.8305H87.0307C87.2222 17.1037 89.1095 15.7441 92.6967 15.7441C96.2838 15.7441 98.0305 17.0611 98.0305 19.691V24.9316C98.0305 26.4654 98.1712 27.5616 98.4565 28.22L98.4604 28.2278ZM94.7872 22.3288C94.3926 22.565 93.6032 22.7742 92.4153 22.964C91.4189 23.1189 90.7703 23.3164 90.4733 23.5527C90.1255 23.851 89.9536 24.2577 89.9536 24.7728C89.9536 25.288 90.1138 25.6714 90.4381 25.958C90.7624 26.2485 91.2157 26.3918 91.8019 26.3918C92.7006 26.3918 93.4274 26.1517 93.9706 25.6753C94.5176 25.1989 94.7872 24.5365 94.7872 23.6883V22.3249V22.3288Z" fill="#231410"/>
<path d="M108.107 11.4975V13.9415C107.412 13.9105 107.041 13.895 106.994 13.895C106.392 13.895 105.993 13.9764 105.798 14.1429C105.599 14.3056 105.501 14.6387 105.501 15.1422V16.1067H107.896V18.3609H105.525V28.2301H102.16V18.3609H100.167V16.1067H102.16V15.4715C102.16 14.0461 102.484 13.0158 103.133 12.3806C103.782 11.7453 104.856 11.4277 106.357 11.4277C106.529 11.4277 106.716 11.4316 106.912 11.4394C107.111 11.4471 107.326 11.4587 107.564 11.4742C107.803 11.4897 107.982 11.4975 108.107 11.4975Z" fill="#231410"/>
<path d="M116.118 15.752C117.997 15.752 119.509 16.3407 120.658 17.5143C121.803 18.6879 122.378 20.2411 122.378 22.1661C122.378 24.0912 121.803 25.6676 120.658 26.8412C119.513 28.0148 117.982 28.6036 116.071 28.6036C114.16 28.6036 112.624 28.0148 111.472 26.8412C110.319 25.6676 109.74 24.1067 109.74 22.1661C109.74 20.2256 110.327 18.6879 111.495 17.5143C112.663 16.3407 114.207 15.752 116.118 15.752ZM116.024 18.289C115.121 18.289 114.414 18.6337 113.89 19.3231C113.371 20.0126 113.109 20.9615 113.109 22.1661C113.109 23.3707 113.371 24.3662 113.89 25.0556C114.41 25.7451 115.137 26.0898 116.071 26.0898C117.005 26.0898 117.728 25.7412 118.239 25.044C118.751 24.3468 119.009 23.3785 119.009 22.1429C119.009 20.9073 118.744 19.9932 118.216 19.3115C117.688 18.6298 116.958 18.289 116.024 18.289Z" fill="#231410"/>
<path d="M132.89 15.892V18.9713C132.417 18.8783 131.979 18.8319 131.585 18.8319C130.479 18.8319 129.666 19.1805 129.142 19.8776C128.623 20.5748 128.361 21.5122 128.361 22.6858V28.2324H124.996V16.1089H128.197V18.3399C129.002 16.6628 130.322 15.8262 132.155 15.8262C132.311 15.8262 132.557 15.8494 132.89 15.8959V15.892Z" fill="#231410"/>
<path d="M153.771 28.2259H150.356V20.9905C150.356 20.1926 150.231 19.5768 149.977 19.1468C149.723 18.7169 149.203 18.5 148.414 18.5C146.851 18.5 146.066 19.4722 146.066 21.4127V28.2259H142.701V20.8472C142.701 20.0958 142.576 19.5109 142.322 19.0965C142.068 18.682 141.58 18.4729 140.853 18.4729C139.223 18.4729 138.411 19.5303 138.411 21.6451V28.2259H135.046V16.1024H138.246V17.7718C139.212 16.4394 140.505 15.7732 142.134 15.7732C143.764 15.7732 144.979 16.4394 145.597 17.7718C146.577 16.4394 147.91 15.7732 149.602 15.7732C150.946 15.7732 151.978 16.1605 152.697 16.9352C153.416 17.7098 153.775 18.7556 153.775 20.0726V28.2259H153.771Z" fill="#231410"/>
</svg>
