<svg width="204" height="53" viewBox="0 0 204 53" fill="none" xmlns="http://www.w3.org/2000/svg">
<path d="M1.57583 51.0312L13.9259 44.4747C14.2313 44.3175 14.4145 44.0293 14.4145 43.7253V13.6212C14.4145 13.1338 14.8726 12.7355 15.4468 12.7355H23.6863C24.2543 12.7355 24.7185 13.1286 24.7185 13.6212V43.7253C24.7185 44.0293 24.9017 44.3175 25.2071 44.4747L37.5633 51.0312C38.2535 51.398 39.1391 50.9735 39.1391 50.2817V0.812348C39.0903 0.351144 38.6566 0 38.1191 0H1.02612C0.470305 0 0.0305393 0.38259 0 0.864757V50.287C0 50.9788 0.885639 51.4033 1.57583 51.0364V51.0312ZM27.2655 43.4423C26.9601 43.285 26.7768 42.9968 26.7768 42.6928V11.8446C26.7768 11.3414 26.3188 10.9326 25.7446 10.9326H13.3823C12.8143 10.9326 12.3501 11.3414 12.3501 11.8446V42.6981C12.3501 43.002 12.1668 43.2903 11.8615 43.4475C11.1713 43.8144 10.2856 43.3899 10.2856 42.6981V9.9945C10.2856 9.50709 10.7437 9.10878 11.3179 9.10878H27.7969C28.3649 9.10878 28.8291 9.50185 28.8291 9.9945V42.6928C28.8291 43.3846 27.9434 43.8091 27.2533 43.4423H27.2655ZM31.3883 45.6277C31.0829 45.4705 30.8996 45.1875 30.8996 44.8783V8.20209C30.8996 7.69896 30.4416 7.29017 29.8674 7.29017H9.26562C8.69759 7.29017 8.23339 7.69896 8.23339 8.20209V44.8835C8.23339 45.1875 8.05015 45.4758 7.74476 45.633C7.05457 45.9999 6.16893 45.5753 6.16893 44.8835V6.3468C6.16893 5.85939 6.62702 5.46107 7.20116 5.46107H31.9197C32.4877 5.46107 32.9519 5.85415 32.9519 6.3468V44.8731C32.9519 45.5649 32.0662 45.9894 31.3761 45.6225H31.3883V45.6277ZM3.08447 1.81861H36.0364C36.6044 1.81861 37.0686 2.21168 37.0686 2.70433V47.069C37.0686 47.7608 36.1829 48.1853 35.4928 47.8185C35.1874 47.6612 35.0041 47.373 35.0041 47.069V4.55439C35.0041 4.05126 34.546 3.64246 33.9719 3.64246H5.14281C4.57478 3.64246 4.11059 4.05126 4.11059 4.55439V47.069C4.11059 47.373 3.92735 47.6612 3.62196 47.8185C2.93177 48.1853 2.04613 47.7608 2.04613 47.069V2.70433C2.04613 2.21692 2.50422 1.81861 3.07836 1.81861H3.08447Z" fill="#ED9C3C"/>
<path d="M68.3867 21.2325V24.2034H65.1294V31.7275C65.1294 32.2023 65.1396 32.5494 65.1601 32.7638C65.1805 32.9782 65.2521 33.2028 65.3748 33.4274C65.4975 33.6571 65.6919 33.8051 65.9475 33.8766C66.2032 33.948 66.5714 33.9838 67.0469 33.9838C67.5838 33.9838 68.0287 33.9633 68.3815 33.9225V37.266C67.3077 37.3477 66.418 37.3885 65.7123 37.3885C63.7896 37.3885 62.4806 37.0516 61.7903 36.3829C61.1 35.7142 60.7522 34.4176 60.7522 32.4983V24.1983H58.083V21.2274H60.7522V16.3984H65.1243V21.2274H68.3815L68.3867 21.2325Z" fill="#FFF6E5"/>
<path d="M86.5294 32.2529C86.0334 33.9681 85.1181 35.3003 83.7835 36.2498C82.4489 37.1993 80.8637 37.674 79.0228 37.674C76.5633 37.674 74.5792 36.9083 73.081 35.382C71.5827 33.8558 70.8311 31.8292 70.8311 29.3127C70.8311 26.7961 71.5878 24.79 73.0963 23.182C74.6048 21.5741 76.5275 20.7676 78.8643 20.7676C81.2012 20.7676 83.2057 21.5894 84.6323 23.228C86.059 24.8717 86.7749 27.0922 86.7749 29.8997V30.3336H75.3002C75.3207 31.7169 75.6582 32.7685 76.3076 33.4933C76.957 34.2182 77.8723 34.5755 79.0535 34.5755C80.6029 34.5755 81.6921 33.7996 82.3108 32.2529H86.5294ZM82.3108 27.5465C82.2085 26.4949 81.8659 25.6323 81.2881 24.9584C80.7103 24.2897 79.9024 23.9528 78.8694 23.9528C77.8979 23.9528 77.0899 24.2744 76.4508 24.9125C75.8116 25.5506 75.4281 26.4286 75.3053 27.5465H82.3159H82.3108Z" fill="#FFF6E5"/>
<path d="M100.678 20.952V25.0102C100.059 24.8877 99.4864 24.8264 98.9699 24.8264C97.5228 24.8264 96.4592 25.2858 95.774 26.2046C95.0939 27.1235 94.7513 28.3588 94.7513 29.9055V37.2152H90.3486V21.2379H94.5366V24.1781C95.5899 21.9678 97.3183 20.8652 99.7165 20.8652C99.921 20.8652 100.243 20.8959 100.678 20.9571V20.952Z" fill="#FFF6E5"/>
<path d="M113.733 20.952V25.0102C113.114 24.8877 112.541 24.8264 112.025 24.8264C110.578 24.8264 109.514 25.2858 108.829 26.2046C108.144 27.1235 107.806 28.3588 107.806 29.9055V37.2152H103.403V21.2379H107.591V24.1781C108.645 21.9678 110.373 20.8652 112.771 20.8652C112.976 20.8652 113.298 20.8959 113.733 20.9571V20.952Z" fill="#FFF6E5"/>
<path d="M131.293 37.2099H126.824C126.68 36.7964 126.573 36.2809 126.512 35.6632C125.167 37.0057 123.438 37.6744 121.332 37.6744C119.552 37.6744 118.156 37.2456 117.144 36.3881C116.131 35.5305 115.625 34.3513 115.625 32.8404C115.625 32.1615 115.712 31.5591 115.891 31.0436C116.065 30.528 116.356 30.0941 116.76 29.7419C117.164 29.3897 117.548 29.1038 117.906 28.8741C118.269 28.6495 118.77 28.4606 119.409 28.3177C120.048 28.1748 120.565 28.0625 120.958 27.991C121.352 27.9196 121.899 27.843 122.6 27.7562C124.149 27.552 125.192 27.3325 125.719 27.1079C126.246 26.8833 126.512 26.4596 126.512 25.8369C126.512 24.4127 125.55 23.6981 123.628 23.6981C122.615 23.6981 121.869 23.8767 121.393 24.2391C120.917 24.6016 120.606 25.2345 120.462 26.1432H116.336C116.586 22.5495 119.056 20.7578 123.75 20.7578C128.444 20.7578 130.73 22.4934 130.73 25.9594V32.8659C130.73 34.8873 130.914 36.3319 131.288 37.1997L131.293 37.2099ZM126.486 29.4356C125.97 29.747 124.937 30.0226 123.382 30.2728C122.078 30.477 121.229 30.7373 120.841 31.0487C120.386 31.4417 120.161 31.9777 120.161 32.6566C120.161 33.3355 120.37 33.8409 120.795 34.2186C121.219 34.6015 121.812 34.7903 122.579 34.7903C123.755 34.7903 124.707 34.4738 125.417 33.846C126.133 33.2181 126.486 32.3452 126.486 31.2273V29.4305V29.4356Z" fill="#FFF6E5"/>
<path d="M143.918 15.1622V18.3832C143.008 18.3424 142.522 18.3219 142.461 18.3219C141.673 18.3219 141.152 18.4291 140.896 18.6486C140.635 18.863 140.507 19.302 140.507 19.9656V21.2367H143.642V24.2075H140.538V37.214H136.135V24.2075H133.527V21.2367H136.135V20.3995C136.135 18.521 136.56 17.1632 137.408 16.326C138.257 15.4889 139.664 15.0703 141.627 15.0703C141.852 15.0703 142.098 15.0754 142.353 15.0856C142.614 15.0958 142.895 15.1111 143.207 15.1316C143.519 15.152 143.754 15.1622 143.918 15.1622Z" fill="#FFF6E5"/>
<path d="M154.401 20.7676C156.86 20.7676 158.839 21.5435 160.343 23.0902C161.841 24.6369 162.593 26.6838 162.593 29.2208C162.593 31.7578 161.841 33.8353 160.343 35.382C158.844 36.9287 156.84 37.7046 154.339 37.7046C151.839 37.7046 149.829 36.9287 148.321 35.382C146.812 33.8353 146.056 31.7782 146.056 29.2208C146.056 26.6634 146.823 24.6369 148.352 23.0902C149.881 21.5435 151.9 20.7676 154.401 20.7676ZM154.278 24.1111C153.097 24.1111 152.171 24.5654 151.486 25.474C150.806 26.3826 150.463 27.6333 150.463 29.2208C150.463 30.8083 150.806 32.1202 151.486 33.0288C152.166 33.9374 153.117 34.3917 154.339 34.3917C155.562 34.3917 156.508 33.9323 157.177 33.0135C157.847 32.0947 158.185 30.8185 158.185 29.1902C158.185 27.5618 157.837 26.3571 157.147 25.4587C156.456 24.5603 155.5 24.1111 154.278 24.1111Z" fill="#FFF6E5"/>
<path d="M176.348 20.952V25.0102C175.729 24.8877 175.156 24.8264 174.64 24.8264C173.193 24.8264 172.129 25.2858 171.444 26.2046C170.764 27.1235 170.421 28.3588 170.421 29.9055V37.2152H166.019V21.2379H170.206V24.1781C171.26 21.9678 172.988 20.8652 175.386 20.8652C175.591 20.8652 175.913 20.8959 176.348 20.9571V20.952Z" fill="#FFF6E5"/>
<path d="M203.674 37.2101H199.205V27.6747C199.205 26.6232 199.041 25.8115 198.709 25.2449C198.376 24.6783 197.696 24.3925 196.663 24.3925C194.618 24.3925 193.59 25.6737 193.59 28.2311V37.2101H189.187V27.4858C189.187 26.4956 189.024 25.7248 188.691 25.1786C188.359 24.6324 187.72 24.3567 186.769 24.3567C184.636 24.3567 183.573 25.7503 183.573 28.5374V37.2101H179.17V21.2327H183.358V23.4328C184.621 21.6768 186.313 20.7988 188.446 20.7988C190.578 20.7988 192.168 21.6768 192.976 23.4328C194.26 21.6768 196.003 20.7988 198.218 20.7988C199.977 20.7988 201.327 21.3093 202.267 22.3302C203.208 23.3511 203.679 24.7294 203.679 26.4649V37.2101H203.674Z" fill="#FFF6E5"/>
</svg>
