<svg width="150" height="39" viewBox="0 0 150 39" fill="none" xmlns="http://www.w3.org/2000/svg">
<path d="M1.20485 38.7427L10.6475 33.7651C10.881 33.6457 11.0211 33.4268 11.0211 33.1961V10.3412C11.0211 9.97116 11.3714 9.66876 11.8104 9.66876H18.1102C18.5445 9.66876 18.8994 9.96718 18.8994 10.3412V33.1961C18.8994 33.4268 19.0395 33.6457 19.273 33.7651L28.7203 38.7427C29.248 39.0212 29.9252 38.6989 29.9252 38.1737V0.616731C29.8878 0.266587 29.5563 0 29.1453 0H0.784555C0.359588 0 0.0233499 0.290461 0 0.656521V38.1777C0 38.7029 0.677146 39.0252 1.20485 38.7467V38.7427ZM20.8468 32.9812C20.6133 32.8618 20.4732 32.643 20.4732 32.4122V8.99234C20.4732 8.61037 20.1229 8.30001 19.6839 8.30001H10.2319C9.7976 8.30001 9.44268 8.61037 9.44268 8.99234V32.4162C9.44268 32.647 9.30259 32.8658 9.06909 32.9852C8.54138 33.2637 7.86423 32.9414 7.86423 32.4162V7.58779C7.86423 7.21775 8.21448 6.91535 8.65346 6.91535H21.253C21.6874 6.91535 22.0423 7.21377 22.0423 7.58779V32.4122C22.0423 32.9374 21.3651 33.2597 20.8374 32.9812H20.8468ZM23.999 34.6404C23.7655 34.521 23.6254 34.3062 23.6254 34.0714V6.227C23.6254 5.84502 23.2751 5.53467 22.8362 5.53467H7.08435C6.65004 5.53467 6.29512 5.84502 6.29512 6.227V34.0754C6.29512 34.3062 6.15502 34.525 5.92153 34.6444C5.39382 34.9229 4.71667 34.6006 4.71667 34.0754V4.81846C4.71667 4.44842 5.06692 4.14603 5.5059 4.14603H24.4053C24.8396 4.14603 25.1945 4.44445 25.1945 4.81846V34.0675C25.1945 34.5927 24.5174 34.915 23.9896 34.6364H23.999V34.6404ZM2.35834 1.38068H27.5528C27.9871 1.38068 28.3421 1.6791 28.3421 2.05312V35.7346C28.3421 36.2598 27.6649 36.5821 27.1372 36.3036C26.9037 36.1842 26.7636 35.9654 26.7636 35.7346V3.45767C26.7636 3.0757 26.4134 2.76534 25.9744 2.76534H3.93212C3.49781 2.76534 3.14289 3.0757 3.14289 3.45767V35.7346C3.14289 35.9654 3.00279 36.1842 2.76929 36.3036C2.24159 36.5821 1.56444 36.2598 1.56444 35.7346V2.05312C1.56444 1.68308 1.91469 1.38068 2.35367 1.38068H2.35834Z" fill="#FFF6E5"/>
<path d="M49.1296 15.701V17.8989H46.7027V23.4654C46.7027 23.8166 46.7103 24.0734 46.7255 24.232C46.7408 24.3906 46.7941 24.5568 46.8855 24.7229C46.977 24.8929 47.1218 25.0024 47.3122 25.0553C47.5027 25.1081 47.7771 25.1346 48.1314 25.1346C48.5314 25.1346 48.8629 25.1195 49.1258 25.0893V27.5628C48.3257 27.6233 47.6628 27.6535 47.137 27.6535C45.7045 27.6535 44.7291 27.4042 44.2148 26.9095C43.7005 26.4148 43.4414 25.4556 43.4414 24.0356V17.8951H41.4526V15.6972H43.4414V12.1246H46.6989V15.6972H49.1258L49.1296 15.701Z" fill="#FFF6E5"/>
<path d="M62.647 23.8541C62.2775 25.123 61.5955 26.1087 60.6011 26.8111C59.6068 27.5135 58.4257 27.8647 57.0541 27.8647C55.2216 27.8647 53.7433 27.2983 52.627 26.1691C51.5107 25.0399 50.9507 23.5407 50.9507 21.6789C50.9507 19.8171 51.5145 18.3329 52.6385 17.1433C53.7624 15.9537 55.1949 15.3571 56.936 15.3571C58.6771 15.3571 60.1706 15.9651 61.2336 17.1773C62.2965 18.3933 62.8299 20.0361 62.8299 22.1132V22.4342H54.2805C54.2958 23.4576 54.5472 24.2355 55.0311 24.7718C55.5149 25.3081 56.1969 25.5724 57.077 25.5724C58.2314 25.5724 59.0429 24.9984 59.5039 23.8541H62.647ZM59.5039 20.3722C59.4277 19.5943 59.1724 18.956 58.7419 18.4575C58.3114 17.9628 57.7094 17.7136 56.9398 17.7136C56.216 17.7136 55.614 17.9515 55.1378 18.4235C54.6615 18.8956 54.3758 19.5452 54.2843 20.3722H59.5077H59.5039Z" fill="#FFF6E5"/>
<path d="M73.1891 15.4932V18.4954C72.7281 18.4048 72.3014 18.3595 71.9166 18.3595C70.8384 18.3595 70.046 18.6994 69.5355 19.3791C69.0287 20.0589 68.7735 20.9728 68.7735 22.1171V27.525H65.4932V15.7046H68.6135V17.8799C69.3983 16.2447 70.686 15.429 72.4729 15.429C72.6253 15.429 72.8653 15.4516 73.1891 15.4969V15.4932Z" fill="#FFF6E5"/>
<path d="M82.915 15.4932V18.4954C82.454 18.4048 82.0273 18.3595 81.6425 18.3595C80.5643 18.3595 79.7718 18.6994 79.2613 19.3791C78.7508 20.0589 78.4993 20.9728 78.4993 22.1171V27.525H75.219V15.7046H78.3393V17.8799C79.1241 16.2447 80.4119 15.429 82.1987 15.429C82.3511 15.429 82.5911 15.4516 82.915 15.4969V15.4932Z" fill="#FFF6E5"/>
<path d="M95.9989 27.5215H92.6691C92.5624 27.2156 92.4824 26.8342 92.4367 26.3773C91.4347 27.3705 90.147 27.8652 88.5773 27.8652C87.2514 27.8652 86.2113 27.548 85.457 26.9135C84.7026 26.2791 84.3254 25.4067 84.3254 24.2889C84.3254 23.7866 84.3902 23.341 84.5236 22.9596C84.6531 22.5781 84.8703 22.2571 85.1712 21.9966C85.4722 21.736 85.758 21.5245 86.0247 21.3546C86.2952 21.1884 86.6685 21.0487 87.1448 20.9429C87.621 20.8372 88.0058 20.7541 88.2992 20.7012C88.5925 20.6484 89.0002 20.5917 89.5221 20.5275C90.6765 20.3765 91.4537 20.2141 91.8462 20.0479C92.2386 19.8817 92.4367 19.5683 92.4367 19.1076C92.4367 18.0539 91.7204 17.5252 90.2879 17.5252C89.5336 17.5252 88.9773 17.6574 88.623 17.9255C88.2687 18.1937 88.0363 18.6619 87.9296 19.3342H84.855C85.0417 16.6755 86.8819 15.35 90.3794 15.35C93.8768 15.35 95.5799 16.634 95.5799 19.1982V24.3078C95.5799 25.8032 95.717 26.872 95.9951 27.514L95.9989 27.5215ZM92.4176 21.77C92.0328 22.0003 91.2632 22.2043 90.105 22.3893C89.1335 22.5404 88.5011 22.733 88.2115 22.9633C87.8724 23.2541 87.7048 23.6507 87.7048 24.1529C87.7048 24.6552 87.861 25.0291 88.1772 25.3085C88.4935 25.5918 88.9354 25.7315 89.5069 25.7315C90.3832 25.7315 91.0918 25.4973 91.6214 25.0328C92.1548 24.5683 92.4176 23.9226 92.4176 23.0955V21.7662V21.77Z" fill="#FFF6E5"/>
<path d="M105.405 11.2108V13.5938C104.727 13.5635 104.365 13.5484 104.319 13.5484C103.733 13.5484 103.344 13.6277 103.154 13.7901C102.959 13.9487 102.864 14.2735 102.864 14.7645V15.7048H105.2V17.9027H102.887V27.5251H99.6066V17.9027H97.6636V15.7048H99.6066V15.0855C99.6066 13.6957 99.9228 12.6912 100.555 12.0718C101.188 11.4525 102.235 11.1428 103.698 11.1428C103.866 11.1428 104.049 11.1466 104.239 11.1542C104.434 11.1617 104.643 11.173 104.876 11.1881C105.108 11.2032 105.283 11.2108 105.405 11.2108Z" fill="#FFF6E5"/>
<path d="M113.215 15.3571C115.048 15.3571 116.522 15.9311 117.642 17.0753C118.759 18.2196 119.319 19.734 119.319 21.6109C119.319 23.4878 118.759 25.0248 117.642 26.1691C116.526 27.3134 115.033 27.8874 113.17 27.8874C111.307 27.8874 109.809 27.3134 108.685 26.1691C107.561 25.0248 106.998 23.5029 106.998 21.6109C106.998 19.7189 107.569 18.2196 108.708 17.0753C109.847 15.9311 111.352 15.3571 113.215 15.3571ZM113.124 17.8306C112.244 17.8306 111.554 18.1667 111.044 18.839C110.537 19.5112 110.282 20.4364 110.282 21.6109C110.282 22.7854 110.537 23.7559 111.044 24.4281C111.55 25.1003 112.259 25.4365 113.17 25.4365C114.08 25.4365 114.785 25.0966 115.284 24.4168C115.783 23.737 116.035 22.7929 116.035 21.5882C116.035 20.3835 115.776 19.4923 115.261 18.8276C114.747 18.163 114.034 17.8306 113.124 17.8306Z" fill="#FFF6E5"/>
<path d="M129.568 15.4936V18.4959C129.107 18.4053 128.68 18.36 128.296 18.36C127.217 18.36 126.425 18.6999 125.914 19.3796C125.408 20.0594 125.152 20.9733 125.152 22.1176V27.5255H121.872V15.7051H124.992V17.8804C125.777 16.2452 127.065 15.4294 128.852 15.4294C129.004 15.4294 129.244 15.4521 129.568 15.4974V15.4936Z" fill="#FFF6E5"/>
<path d="M149.928 27.5214H146.598V20.4669C146.598 19.689 146.476 19.0885 146.228 18.6693C145.981 18.2501 145.474 18.0386 144.704 18.0386C143.18 18.0386 142.415 18.9865 142.415 20.8785V27.5214H139.134V20.3272C139.134 19.5945 139.012 19.0243 138.765 18.6202C138.517 18.2161 138.041 18.0122 137.332 18.0122C135.743 18.0122 134.951 19.0432 134.951 21.1051V27.5214H131.671V15.701H134.791V17.3287C135.732 16.0296 136.993 15.38 138.582 15.38C140.171 15.38 141.355 16.0296 141.957 17.3287C142.914 16.0296 144.213 15.38 145.862 15.38C147.173 15.38 148.179 15.7577 148.88 16.5129C149.581 17.2682 149.931 18.2879 149.931 19.5719V27.5214H149.928Z" fill="#FFF6E5"/>
</svg>
