<svg width="55" height="55" viewBox="0 0 55 55" fill="none" xmlns="http://www.w3.org/2000/svg">
<path d="M10.0908 1.44329C11.0627 0.516825 12.354 0 13.6968 0H49.7737C52.6601 0 55 2.33987 55 5.22624L55 41.6996C55 43.1291 54.4144 44.4962 53.3797 45.4825L44.9092 53.5567C43.9372 54.4832 42.646 55 41.3032 55L5.22625 55C2.33987 55 0 52.6601 0 49.7738V13.3004C0 11.8709 0.585555 10.5038 1.62029 9.51749L10.0908 1.44329Z" fill="#754437"/>
<path fill-rule="evenodd" clip-rule="evenodd" d="M28.3733 31.633L31.6657 28.3406L19.9551 28.3406C19.651 28.3406 19.3595 28.2198 19.1445 28.0049C18.9296 27.7899 18.8088 27.4983 18.8088 27.1943C18.8088 26.8903 18.9296 26.5987 19.1445 26.3838C19.3595 26.1688 19.6511 26.048 19.9551 26.0481L31.6657 26.0481L28.3733 22.7557C28.1584 22.5407 28.0376 22.2491 28.0376 21.9451C28.0376 21.6411 28.1584 21.3496 28.3733 21.1346C28.5883 20.9196 28.8799 20.7989 29.1839 20.7988C29.4879 20.7989 29.7794 20.9196 29.9944 21.1346L34.9331 26.0733C35.659 26.8264 35.5632 27.6853 34.9353 28.3132L29.9944 33.2541C29.7791 33.4674 29.4881 33.5868 29.185 33.5861C28.8819 33.5854 28.5914 33.4647 28.3771 33.2503C28.1627 33.036 28.042 32.7455 28.0413 32.4424C28.0406 32.1393 28.16 31.8483 28.3733 31.633Z" fill="#FFF6E5"/>
</svg>
