<svg width="55" height="55" viewBox="0 0 55 55" fill="none" xmlns="http://www.w3.org/2000/svg">
<path d="M10.0908 1.44329C11.0627 0.516825 12.354 0 13.6968 0H49.7737C52.6601 0 55 2.33987 55 5.22624L55 41.6996C55 43.1291 54.4144 44.4962 53.3797 45.4825L44.9092 53.5567C43.9372 54.4832 42.646 55 41.3032 55L5.22625 55C2.33987 55 0 52.6601 0 49.7738V13.3004C0 11.8709 0.585555 10.5038 1.62029 9.51749L10.0908 1.44329Z" fill="#F2E5D4"/>
<path fill-rule="evenodd" clip-rule="evenodd" d="M26.0139 31.633L22.7215 28.3406L34.4321 28.3406C34.7362 28.3406 35.0277 28.2198 35.2427 28.0049C35.4577 27.7899 35.5784 27.4983 35.5784 27.1943C35.5784 26.8903 35.4576 26.5987 35.2427 26.3838C35.0277 26.1688 34.7361 26.048 34.4321 26.0481L22.7215 26.0481L26.0139 22.7557C26.2288 22.5407 26.3496 22.2491 26.3496 21.9451C26.3496 21.6411 26.2288 21.3496 26.0139 21.1346C25.7989 20.9196 25.5073 20.7989 25.2033 20.7988C24.8993 20.7989 24.6078 20.9196 24.3928 21.1346L19.4541 26.0733C18.7282 26.8264 18.824 27.6853 19.4519 28.3132L24.3928 33.2541C24.6081 33.4674 24.8991 33.5868 25.2022 33.5861C25.5053 33.5854 25.7958 33.4647 26.0101 33.2503C26.2245 33.036 26.3452 32.7455 26.3459 32.4424C26.3466 32.1393 26.2272 31.8483 26.0139 31.633Z" fill="#231410"/>
</svg>
