<svg width="470" height="300" viewBox="0 0 470 300" fill="none" xmlns="http://www.w3.org/2000/svg">
<path d="M419.43 7.88754C413.601 2.80202 406.127 0 398.392 0H32C14.3269 0 3.05176e-05 14.3269 3.05176e-05 32L0.000244141 233.443C0.000244141 242.686 3.99734 251.478 10.9625 257.555L50.5706 292.112C56.3993 297.198 63.8729 300 71.6083 300H438C455.673 300 470 285.673 470 268L470 66.5574C470 57.3139 466.003 48.5219 459.038 42.445L419.43 7.88754Z" fill="#FFF6E5"/>
<path d="M398.392 0.5H32C14.6031 0.5 0.500019 14.603 0.5 32V233.442C0.5 242.541 4.43473 251.197 11.291 257.179L50.8994 291.735C56.6371 296.741 63.9939 299.5 71.6084 299.5H438C455.397 299.5 469.5 285.397 469.5 268V66.5576C469.5 57.4585 465.565 48.8033 458.709 42.8213L419.101 8.26465C413.363 3.25862 406.006 0.5 398.392 0.5Z" stroke="#754437" stroke-opacity="0.2"/>
</svg>
