<svg width="330" height="248" viewBox="0 0 330 248" fill="none" xmlns="http://www.w3.org/2000/svg">
<path d="M292.268 4.23442C289.632 1.52712 286.015 0 282.236 0H14C6.26801 0 0 6.26802 0 14L0.000183105 199.317C0.000183105 202.964 1.42401 206.468 3.96857 209.082L37.7323 243.766C40.3678 246.473 43.9857 248 47.7639 248H316C323.732 248 330 241.732 330 234L330 48.6835C330 45.0356 328.576 41.5318 326.032 38.9179L292.268 4.23442Z" fill="#FFF6E5"/>
<path d="M282.236 0.5H14C6.54415 0.5 0.500006 6.54416 0.5 14V199.316C0.5 202.834 1.87347 206.213 4.32715 208.733L38.0908 243.417C40.6321 246.027 44.1205 247.5 47.7637 247.5H316C323.456 247.5 329.5 241.456 329.5 234V48.6836C329.5 45.166 328.127 41.7871 325.673 39.2666L291.909 4.58301C289.368 1.97261 285.879 0.500022 282.236 0.5Z" stroke="#754437" stroke-opacity="0.2"/>
</svg>
