<svg width="184" height="29" viewBox="0 0 184 29" fill="none" xmlns="http://www.w3.org/2000/svg">
<path d="M13.0215 7.73162V11.4597H8.90501V20.9015C8.90501 21.4972 8.91794 21.9328 8.94379 22.2018C8.96964 22.4709 9.06011 22.7527 9.2152 23.0346C9.3703 23.3228 9.61587 23.5086 9.93898 23.5983C10.2621 23.6879 10.7274 23.7328 11.3284 23.7328C12.0069 23.7328 12.5691 23.7072 13.015 23.6559V27.8516C11.6579 27.9541 10.5335 28.0053 9.64172 28.0053C7.2119 28.0053 5.55755 27.5825 4.68515 26.7434C3.81274 25.9043 3.37331 24.2773 3.37331 21.8688V11.4533H0V7.72521H3.37331V1.66553H8.89855V7.72521H13.015L13.0215 7.73162Z" fill="#ECE4D2"/>
<path d="M35.9495 21.561C35.3227 23.7133 34.1659 25.3851 32.4793 26.5766C30.7926 27.768 28.7893 28.3637 26.4629 28.3637C23.3546 28.3637 20.8472 27.4029 18.9538 25.4876C17.0603 23.5724 16.1104 21.0293 16.1104 17.8714C16.1104 14.7134 17.0668 12.196 18.9731 10.1783C20.8795 8.16052 23.3093 7.14844 26.2626 7.14844C29.2158 7.14844 31.7491 8.17974 33.552 10.2359C35.355 12.2985 36.2597 15.085 36.2597 18.608V19.1525H21.7584C21.7842 20.8884 22.2107 22.208 23.0314 23.1176C23.8522 24.0272 25.0089 24.4755 26.5017 24.4755C28.4598 24.4755 29.8362 23.5019 30.6182 21.561H35.9495ZM30.6182 15.6551C30.4889 14.3355 30.0559 13.253 29.3257 12.4074C28.5955 11.5683 27.5744 11.1455 26.2691 11.1455C25.0412 11.1455 24.0202 11.5491 23.2124 12.3498C22.4046 13.1505 21.9199 14.2522 21.7648 15.6551H30.6246H30.6182Z" fill="#ECE4D2"/>
<path d="M53.8309 7.37891V12.4714C53.049 12.3176 52.3252 12.2408 51.6725 12.2408C49.8437 12.2408 48.4995 12.8173 47.6336 13.9703C46.7741 15.1233 46.3411 16.6734 46.3411 18.6143V27.7871H40.7771V7.73763H46.0697V11.4272C47.4009 8.65363 49.5852 7.27002 52.616 7.27002C52.8745 7.27002 53.2816 7.30845 53.8309 7.38532V7.37891Z" fill="#ECE4D2"/>
<path d="M70.3277 7.37891V12.4714C69.5458 12.3176 68.822 12.2408 68.1693 12.2408C66.3405 12.2408 64.9963 12.8173 64.1304 13.9703C63.2645 15.1233 62.8379 16.6734 62.8379 18.6143V27.7871H57.2739V7.73763H62.5665V11.4272C63.8978 8.65363 66.082 7.27002 69.1128 7.27002C69.3713 7.27002 69.7784 7.30845 70.3277 7.38532V7.37891Z" fill="#ECE4D2"/>
<path d="M92.5206 27.7809H86.8726C86.6917 27.2621 86.5559 26.6151 86.4784 25.8401C84.7788 27.5247 82.5946 28.3639 79.9321 28.3639C77.6832 28.3639 75.919 27.8258 74.6395 26.7496C73.36 25.6735 72.7202 24.1938 72.7202 22.2978C72.7202 21.4458 72.8301 20.69 73.0563 20.043C73.276 19.396 73.6443 18.8516 74.1548 18.4096C74.6654 17.9676 75.15 17.6089 75.6024 17.3206C76.0612 17.0388 76.6945 16.8018 77.5023 16.6224C78.3101 16.4431 78.9628 16.3021 79.4604 16.2125C79.958 16.1228 80.6494 16.0267 81.5348 15.9178C83.4928 15.6616 84.8111 15.3861 85.4767 15.1043C86.1424 14.8224 86.4784 14.2908 86.4784 13.5093C86.4784 11.7221 85.2635 10.8254 82.8337 10.8254C81.5541 10.8254 80.6106 11.0496 80.0097 11.5044C79.4087 11.9591 79.0145 12.7534 78.8335 13.8936H73.6185C73.9351 9.3841 77.0564 7.13574 82.9888 7.13574C88.9211 7.13574 91.8098 9.31364 91.8098 13.663V22.3298C91.8098 24.8664 92.0424 26.6792 92.5142 27.7681L92.5206 27.7809ZM86.4461 18.0252C85.7934 18.416 84.488 18.7619 82.5235 19.0758C80.8756 19.332 79.8029 19.6587 79.3117 20.0494C78.7366 20.5426 78.4523 21.2152 78.4523 22.0672C78.4523 22.9191 78.7172 23.5533 79.2536 24.0273C79.7899 24.5077 80.5396 24.7447 81.5089 24.7447C82.9952 24.7447 84.1972 24.3476 85.0955 23.5597C86.0002 22.7718 86.4461 21.6764 86.4461 20.2736V18.0188V18.0252Z" fill="#ECE4D2"/>
<path d="M108.475 0.115301V4.15723C107.325 4.10598 106.711 4.08036 106.634 4.08036C105.638 4.08036 104.979 4.21488 104.656 4.49032C104.327 4.75935 104.165 5.31023 104.165 6.14296V7.73795H108.126V11.466H104.204V27.7874H98.6397V11.466H95.344V7.73795H98.6397V6.68743C98.6397 4.33018 99.1761 2.62629 100.249 1.57577C101.322 0.525258 103.099 0 105.58 0C105.865 0 106.175 0.00640542 106.498 0.0192166C106.827 0.0320278 107.183 0.0512446 107.577 0.076867C107.971 0.102489 108.269 0.115301 108.475 0.115301Z" fill="#ECE4D2"/>
<path d="M121.723 7.14844C124.831 7.14844 127.332 8.12209 129.232 10.063C131.125 12.0039 132.075 14.5725 132.075 17.7561C132.075 20.9397 131.125 23.5467 129.232 25.4876C127.338 27.4285 124.805 28.4022 121.645 28.4022C118.485 28.4022 115.945 27.4285 114.039 25.4876C112.133 23.5467 111.176 20.9653 111.176 17.7561C111.176 14.5469 112.146 12.0039 114.078 10.063C116.01 8.12209 118.563 7.14844 121.723 7.14844ZM121.568 11.3441C120.075 11.3441 118.905 11.9142 118.039 13.0544C117.18 14.1946 116.747 15.7639 116.747 17.7561C116.747 19.7482 117.18 21.3945 118.039 22.5347C118.899 23.6748 120.101 24.2449 121.645 24.2449C123.19 24.2449 124.385 23.6684 125.232 22.5154C126.078 21.3624 126.505 19.761 126.505 17.7177C126.505 15.6743 126.065 14.1626 125.193 13.0352C124.321 11.9078 123.112 11.3441 121.568 11.3441Z" fill="#ECE4D2"/>
<path d="M149.46 7.37989V12.4723C148.678 12.3186 147.954 12.2417 147.302 12.2417C145.473 12.2417 144.129 12.8182 143.263 13.9712C142.403 15.1242 141.97 16.6744 141.97 18.6153V27.7881H136.406V7.7386H141.699V11.4282C143.03 8.6546 145.214 7.271 148.245 7.271C148.504 7.271 148.911 7.30943 149.46 7.3863V7.37989Z" fill="#ECE4D2"/>
<path d="M183.994 27.781H178.346V15.8153C178.346 14.4958 178.139 13.4773 177.719 12.7663C177.299 12.0553 176.439 11.6965 175.134 11.6965C172.549 11.6965 171.25 13.3043 171.25 16.5135V27.781H165.686V15.5783C165.686 14.3356 165.479 13.3684 165.059 12.683C164.639 11.9976 163.831 11.6517 162.629 11.6517C159.935 11.6517 158.59 13.4004 158.59 16.8979V27.781H153.026V7.73149H158.319V10.4923C159.915 8.28877 162.054 7.18701 164.749 7.18701C167.444 7.18701 169.453 8.28877 170.475 10.4923C172.097 8.28877 174.3 7.18701 177.098 7.18701C179.321 7.18701 181.027 7.82757 182.216 9.10869C183.406 10.3898 184 12.1193 184 14.2972V27.781H183.994Z" fill="#ECE4D2"/>
</svg>
