<svg width="40" height="40" viewBox="0 0 40 40" fill="none" xmlns="http://www.w3.org/2000/svg">
<circle cx="20" cy="20" r="20" fill="#FFF6E5"/>
<path d="M23.8332 14.85C23.2637 14.1996 22.9498 13.3645 22.9499 12.5H20.3749V22.8333C20.3554 23.3927 20.1195 23.9226 19.7168 24.3112C19.3141 24.6999 18.7762 24.917 18.2166 24.9167C17.0332 24.9167 16.0499 23.95 16.0499 22.75C16.0499 21.3167 17.4332 20.2417 18.8582 20.6833V18.05C15.9832 17.6667 13.4666 19.9 13.4666 22.75C13.4666 25.525 15.7666 27.5 18.2082 27.5C20.8249 27.5 22.9499 25.375 22.9499 22.75V17.5083C23.9941 18.2582 25.2477 18.6605 26.5332 18.6583V16.0833C26.5332 16.0833 24.9666 16.1583 23.8332 14.85Z" fill="#231410"/>
</svg>
