<svg width="653" height="654" viewBox="0 0 653 654" fill="none" xmlns="http://www.w3.org/2000/svg">
<path fill-rule="evenodd" clip-rule="evenodd" d="M548.045 654C525.14 654 506.572 635.365 506.571 612.379V556.93C506.571 553.26 507.056 549.648 507.981 546.176C506.904 547.37 505.752 548.505 504.531 549.577L397.185 643.719C389.627 650.346 379.931 654 369.895 654H294.759C271.854 654 253.286 635.365 253.286 612.379L253.286 556.93C253.286 553.26 253.77 549.648 254.696 546.175C253.618 547.369 252.467 548.505 251.245 549.577L143.899 643.719C136.341 650.347 126.645 654 116.608 654H41.4733C18.5684 654 0.000222626 635.365 4.70479e-05 612.379L3.73874e-05 556.93C0.000120649 544.407 5.61833 532.55 15.2968 524.647L119.838 439.276C118.767 439.36 117.689 439.405 116.608 439.405L41.4732 439.405C18.5684 439.405 0.000185238 420.77 9.66044e-06 397.783L0 342.335C8.3262e-05 329.812 5.6183 317.955 15.2968 310.051L120.742 223.941C128.139 217.901 137.383 214.603 146.919 214.603L223.955 214.603C246.86 214.603 265.428 233.237 265.428 256.224L265.428 303.64C265.428 307.308 264.946 310.921 264.02 314.396C265.419 312.845 266.942 311.391 268.582 310.051L373.133 224.672C372.059 224.757 370.979 224.802 369.895 224.802L294.759 224.802C271.854 224.802 253.286 206.167 253.286 183.18V127.732C253.286 115.209 258.904 103.352 268.582 95.4485L374.028 9.33819C381.424 3.29806 390.669 6.00533e-05 400.204 5.79618e-05L477.24 4.44443e-05C500.145 3.94203e-05 518.713 18.6346 518.713 41.6214V89.0376C518.713 92.7051 518.232 96.3183 517.305 99.793C518.705 98.2423 520.228 96.7881 521.868 95.4485L627.314 9.33814C634.71 3.29803 643.954 3.58436e-05 653.49 1.35176e-05L730.527 0C753.432 0.000131947 772 18.6346 772 41.6214V89.0383C772 101.049 766.829 112.475 757.816 120.378L650.471 214.521C650.389 214.593 650.305 214.663 650.222 214.735C651.306 214.649 652.396 214.603 653.49 214.603L730.527 214.603C753.432 214.603 772 233.237 772 256.224V303.641C772 315.652 766.829 327.078 757.817 334.981L650.471 429.124C650.392 429.193 650.312 429.261 650.232 429.329C651.313 429.244 652.4 429.198 653.49 429.198L730.527 429.198C753.432 429.198 772 447.833 772 470.819L772 518.236C772 530.247 766.829 541.673 757.817 549.576L650.471 643.719C642.914 650.347 633.217 654 623.181 654L548.045 654ZM517.305 314.396C518.705 312.845 520.228 311.391 521.868 310.051L626.419 224.672C625.345 224.757 624.265 224.802 623.181 224.802H548.045C525.14 224.802 506.571 206.167 506.571 183.18V127.732C506.571 124.062 507.055 120.45 507.981 116.978C506.904 118.171 505.752 119.307 504.531 120.378L397.185 214.52C397.102 214.593 397.018 214.663 396.935 214.735C398.019 214.649 399.11 214.603 400.204 214.603H477.241C500.146 214.603 518.714 233.238 518.714 256.224V303.64C518.714 307.308 518.232 310.921 517.305 314.396ZM264.02 528.991C265.419 527.44 266.942 525.986 268.582 524.647L373.122 439.276C372.052 439.36 370.975 439.405 369.895 439.405L294.759 439.405C271.854 439.405 253.286 420.77 253.286 397.783V342.335C253.286 338.665 253.77 335.053 254.695 331.58C253.618 332.774 252.467 333.91 251.245 334.981L143.899 429.123C143.82 429.193 143.739 429.261 143.659 429.329C144.74 429.244 145.828 429.198 146.919 429.198L223.955 429.198C246.86 429.198 265.428 447.833 265.428 470.82V518.236C265.428 521.903 264.946 525.516 264.02 528.991ZM517.305 528.991C518.705 527.44 520.228 525.986 521.868 524.647L626.408 439.276C625.338 439.36 624.261 439.405 623.181 439.405H548.045C525.14 439.405 506.571 420.77 506.571 397.783V342.335C506.571 338.665 507.056 335.053 507.981 331.581C506.904 332.774 505.752 333.91 504.531 334.981L397.185 429.123C397.106 429.193 397.025 429.261 396.946 429.329C398.027 429.244 399.114 429.198 400.204 429.198H477.241C500.146 429.198 518.714 447.833 518.714 470.82V518.236C518.714 521.903 518.232 525.516 517.305 528.991Z" fill="#F2E9D9"/>
</svg>
