<svg width="40" height="40" viewBox="0 0 40 40" fill="none" xmlns="http://www.w3.org/2000/svg">
<circle cx="20" cy="20" r="20" fill="#FFF6E5"/>
<path fill-rule="evenodd" clip-rule="evenodd" d="M28.783 15.3507C28.6789 14.9609 28.4745 14.6052 28.1901 14.3191C27.9057 14.0329 27.5513 13.8263 27.1622 13.7198C25.733 13.334 19.9997 13.334 19.9997 13.334C19.9997 13.334 14.2663 13.334 12.8372 13.7198C12.4481 13.8263 12.0936 14.0329 11.8093 14.3191C11.5249 14.6052 11.3204 14.9609 11.2163 15.3507C10.833 16.7907 10.833 19.7923 10.833 19.7923C10.833 19.7923 10.833 22.794 11.2163 24.234C11.3203 24.6239 11.5247 24.9798 11.8091 25.2661C12.0935 25.5523 12.448 25.7591 12.8372 25.8657C14.2672 26.2507 19.9997 26.2507 19.9997 26.2507C19.9997 26.2507 25.733 26.2507 27.1622 25.8657C27.5514 25.7591 27.9059 25.5523 28.1903 25.2661C28.4747 24.9798 28.679 24.6239 28.783 24.234C29.1663 22.7957 29.1663 19.7923 29.1663 19.7923C29.1663 19.7923 29.1663 16.7907 28.783 15.3507ZM18.1247 17.0665V22.5182L22.9163 19.7923L18.1247 17.0665Z" fill="#231410"/>
</svg>
